<mxfile host="app.diagrams.net" agent="Mozilla/5.0 (Windows NT 10.0; Win64; x64) AppleWebKit/537.36 (KHTML, like Gecko) Chrome/130.0.0.0 Safari/537.36" version="24.8.6">
  <diagram name="Trang-1" id="CmX8EPXPAXkFjCzXngdP">
    <mxGraphModel dx="1050" dy="565" grid="1" gridSize="10" guides="1" tooltips="1" connect="1" arrows="1" fold="1" page="1" pageScale="1" pageWidth="827" pageHeight="1169" math="0" shadow="0">
      <root>
        <mxCell id="0" />
        <mxCell id="1" parent="0" />
        <mxCell id="7XzY-q2d1lQR3WnNse8H-5" style="edgeStyle=orthogonalEdgeStyle;rounded=0;orthogonalLoop=1;jettySize=auto;html=1;entryX=0.5;entryY=0;entryDx=0;entryDy=0;" edge="1" parent="1" source="7XzY-q2d1lQR3WnNse8H-1" target="7XzY-q2d1lQR3WnNse8H-2">
          <mxGeometry relative="1" as="geometry" />
        </mxCell>
        <mxCell id="7XzY-q2d1lQR3WnNse8H-1" value="start" style="ellipse;whiteSpace=wrap;html=1;" vertex="1" parent="1">
          <mxGeometry x="300" y="70" width="140" height="80" as="geometry" />
        </mxCell>
        <mxCell id="7XzY-q2d1lQR3WnNse8H-4" style="edgeStyle=orthogonalEdgeStyle;rounded=0;orthogonalLoop=1;jettySize=auto;html=1;entryX=0.5;entryY=0;entryDx=0;entryDy=0;" edge="1" parent="1" source="7XzY-q2d1lQR3WnNse8H-2" target="7XzY-q2d1lQR3WnNse8H-9">
          <mxGeometry relative="1" as="geometry">
            <mxPoint x="370" y="350" as="targetPoint" />
          </mxGeometry>
        </mxCell>
        <mxCell id="7XzY-q2d1lQR3WnNse8H-2" value="nhập số a và b" style="shape=parallelogram;perimeter=parallelogramPerimeter;whiteSpace=wrap;html=1;fixedSize=1;" vertex="1" parent="1">
          <mxGeometry x="310" y="210" width="120" height="60" as="geometry" />
        </mxCell>
        <mxCell id="7XzY-q2d1lQR3WnNse8H-14" style="edgeStyle=orthogonalEdgeStyle;rounded=0;orthogonalLoop=1;jettySize=auto;html=1;entryX=0.5;entryY=0;entryDx=0;entryDy=0;" edge="1" parent="1" source="7XzY-q2d1lQR3WnNse8H-6" target="7XzY-q2d1lQR3WnNse8H-13">
          <mxGeometry relative="1" as="geometry" />
        </mxCell>
        <mxCell id="7XzY-q2d1lQR3WnNse8H-6" value="hiển thị tổng" style="rounded=0;whiteSpace=wrap;html=1;direction=west;" vertex="1" parent="1">
          <mxGeometry x="295" y="440" width="130" height="60" as="geometry" />
        </mxCell>
        <mxCell id="7XzY-q2d1lQR3WnNse8H-9" value="tính tổng = a + b" style="rhombus;whiteSpace=wrap;html=1;" vertex="1" parent="1">
          <mxGeometry x="295" y="320" width="150" height="80" as="geometry" />
        </mxCell>
        <mxCell id="7XzY-q2d1lQR3WnNse8H-13" value="kết thúc" style="ellipse;whiteSpace=wrap;html=1;" vertex="1" parent="1">
          <mxGeometry x="300" y="570" width="120" height="80" as="geometry" />
        </mxCell>
        <mxCell id="7XzY-q2d1lQR3WnNse8H-15" style="edgeStyle=orthogonalEdgeStyle;rounded=0;orthogonalLoop=1;jettySize=auto;html=1;entryX=0.429;entryY=1.01;entryDx=0;entryDy=0;entryPerimeter=0;" edge="1" parent="1" source="7XzY-q2d1lQR3WnNse8H-9" target="7XzY-q2d1lQR3WnNse8H-6">
          <mxGeometry relative="1" as="geometry" />
        </mxCell>
      </root>
    </mxGraphModel>
  </diagram>
</mxfile>
